<svg xmlns="http://www.w3.org/2000/svg" xmlns:xlink="http://www.w3.org/1999/xlink" viewBox="0 0 765.15 965.5"><defs><style>.cls-1{fill:none;}.cls-2{clip-path:url(#clip-path);}.cls-3{fill:#86eae9;}.cls-4{clip-path:url(#clip-path-2);}.cls-5{fill:#37c9ef;}.cls-6{clip-path:url(#clip-path-3);}.cls-7{fill:#3edad8;}.cls-8{clip-path:url(#clip-path-4);}.cls-9{fill:#2c92d5;}.cls-10{clip-path:url(#clip-path-5);}.cls-11{fill:#13538a;}.cls-12{clip-path:url(#clip-path-6);}.cls-13{clip-path:url(#clip-path-7);}.cls-14{fill:#fff;}.cls-15{clip-path:url(#clip-path-8);}.cls-16{clip-path:url(#clip-path-9);}.cls-17{clip-path:url(#clip-path-10);}.cls-18{clip-path:url(#clip-path-11);}.cls-19{clip-path:url(#clip-path-12);}.cls-20{font-size:24px;font-family:Poppins-Regular, Poppins;}.cls-21{font-size:18px;font-family:Poppins-Light, Poppins;font-weight:300;}</style><clipPath id="clip-path"><rect class="cls-1" x="62.96" y="168.15" width="129.75" height="129.75"/></clipPath><clipPath id="clip-path-2"><rect class="cls-1" x="488.73" y="168.15" width="129.75" height="129.75"/></clipPath><clipPath id="clip-path-3"><rect class="cls-1" x="275.84" y="168.15" width="129.75" height="129.75"/></clipPath><clipPath id="clip-path-4"><rect class="cls-1" x="53.98" y="700.22" width="129.75" height="129.75"/></clipPath><clipPath id="clip-path-5"><rect class="cls-1" x="265.97" y="700.22" width="129.75" height="129.75"/></clipPath><clipPath id="clip-path-6"><rect class="cls-1" x="477.67" y="701.78" width="129.75" height="129.75"/></clipPath><clipPath id="clip-path-7"><rect class="cls-1" x="97.23" y="206.88" width="61.5" height="61.5"/></clipPath><clipPath id="clip-path-8"><rect class="cls-1" x="74.19" y="726.01" width="97.5" height="97.5"/></clipPath><clipPath id="clip-path-9"><rect class="cls-1" x="508.91" y="732.85" width="68.25" height="68.25"/></clipPath><clipPath id="clip-path-10"><rect class="cls-1" x="293.44" y="723.64" width="83.25" height="83.25"/></clipPath><clipPath id="clip-path-11"><rect class="cls-1" x="308.21" y="199.61" width="69.75" height="69.75"/></clipPath><clipPath id="clip-path-12"><rect class="cls-1" x="515.3" y="195.57" width="78.75" height="78.75"/></clipPath></defs><g id="Capa_2" data-name="Capa 2"><g id="Capa_2-2" data-name="Capa 2"><g class="cls-2"><path class="cls-3" d="M192.71,233c0,1.06,0,2.12-.08,3.18s-.13,2.12-.23,3.17-.24,2.11-.39,3.17-.34,2.09-.55,3.13-.44,2.08-.7,3.11-.54,2.05-.85,3.07-.64,2-1,3-.74,2-1.15,3-.84,1.95-1.29,2.91-.93,1.91-1.43,2.85-1,1.86-1.57,2.77-1.12,1.81-1.71,2.69-1.2,1.75-1.83,2.6-1.28,1.69-2,2.51-1.37,1.63-2.08,2.41-1.44,1.56-2.19,2.31-1.52,1.48-2.31,2.2-1.59,1.4-2.41,2.08-1.66,1.32-2.51,1.95-1.72,1.25-2.6,1.84-1.78,1.16-2.7,1.7-1.83,1.07-2.77,1.57-1.88,1-2.84,1.43-1.93.89-2.91,1.29-2,.79-3,1.15-2,.69-3,1-2,.59-3.06.85-2.07.49-3.11.69-2.09.39-3.14.55-2.1.28-3.16.39-2.11.18-3.17.23-2.13.08-3.19.08-2.12,0-3.18-.08-2.12-.13-3.18-.23-2.11-.24-3.16-.39-2.09-.34-3.13-.55-2.08-.44-3.11-.69-2-.54-3.07-.85-2-.64-3-1-2-.74-3-1.15-2-.83-2.92-1.29-1.9-.93-2.84-1.43-1.86-1-2.77-1.57-1.81-1.11-2.69-1.7-1.75-1.2-2.6-1.84-1.69-1.28-2.51-1.95-1.63-1.37-2.41-2.08-1.56-1.45-2.31-2.2-1.48-1.52-2.2-2.31-1.4-1.59-2.08-2.41-1.32-1.66-2-2.51-1.24-1.72-1.83-2.6-1.16-1.78-1.7-2.69-1.07-1.84-1.57-2.77-1-1.89-1.43-2.85-.89-1.93-1.29-2.91-.79-2-1.15-3-.69-2-1-3-.59-2-.85-3.07-.49-2.07-.7-3.11-.38-2.08-.54-3.13-.29-2.11-.39-3.17-.18-2.11-.23-3.17S63,234.09,63,233s0-2.13.08-3.19.13-2.12.23-3.17.23-2.11.39-3.16.34-2.1.54-3.14.44-2.08.7-3.11.54-2,.85-3.07.64-2,1-3,.74-2,1.15-3,.83-1.95,1.29-2.91.93-1.91,1.43-2.85,1-1.86,1.57-2.77,1.11-1.8,1.7-2.69,1.2-1.75,1.83-2.6,1.29-1.69,2-2.51,1.37-1.62,2.08-2.41,1.45-1.56,2.2-2.31,1.52-1.48,2.31-2.19,1.59-1.41,2.41-2.08,1.65-1.33,2.51-2,1.72-1.25,2.6-1.84,1.78-1.15,2.69-1.7,1.83-1.07,2.77-1.57,1.88-1,2.84-1.43,1.93-.88,2.92-1.29,2-.79,3-1.15,2-.69,3-1,2-.59,3.07-.84,2.06-.5,3.11-.7,2.08-.39,3.13-.55,2.11-.28,3.16-.39,2.12-.18,3.18-.23,2.12-.08,3.18-.08,2.13,0,3.19.08,2.11.13,3.17.23,2.11.24,3.16.39,2.1.34,3.14.55,2.08.44,3.11.7,2.05.54,3.06.84,2,.65,3,1,2,.74,3,1.15,2,.84,2.91,1.29,1.91.93,2.84,1.43,1.86,1,2.77,1.57,1.81,1.11,2.7,1.7,1.75,1.21,2.6,1.84,1.69,1.28,2.51,2,1.62,1.36,2.41,2.08,1.56,1.44,2.31,2.19,1.48,1.52,2.19,2.31,1.41,1.59,2.08,2.41,1.33,1.66,2,2.51,1.24,1.72,1.83,2.6,1.16,1.78,1.71,2.69,1.07,1.84,1.57,2.77,1,1.89,1.43,2.85.88,1.93,1.29,2.91.79,2,1.15,3,.69,2,1,3,.6,2,.85,3.07.49,2.07.7,3.11.39,2.09.55,3.14.28,2.1.39,3.16.18,2.11.23,3.17S192.71,232,192.71,233Z"/></g><g class="cls-4"><path class="cls-5" d="M618.48,233c0,1.06,0,2.12-.08,3.18s-.13,2.12-.23,3.17-.24,2.11-.39,3.17-.34,2.09-.55,3.13-.44,2.08-.69,3.11-.54,2.05-.85,3.07-.64,2-1,3-.74,2-1.15,3-.83,1.95-1.29,2.91-.93,1.91-1.43,2.85-1,1.86-1.57,2.77-1.11,1.81-1.7,2.69-1.2,1.75-1.84,2.6-1.28,1.69-2,2.51-1.36,1.63-2.08,2.41-1.44,1.56-2.19,2.31-1.52,1.48-2.31,2.2-1.59,1.4-2.41,2.08-1.66,1.32-2.51,1.95-1.72,1.25-2.6,1.84-1.78,1.16-2.69,1.7-1.84,1.07-2.77,1.57-1.89,1-2.85,1.43-1.93.89-2.91,1.29-2,.79-3,1.15-2,.69-3,1-2,.59-3.07.85-2.07.49-3.11.69-2.09.39-3.14.55-2.1.28-3.16.39-2.11.18-3.17.23-2.12.08-3.18.08-2.13,0-3.19-.08-2.12-.13-3.17-.23-2.11-.24-3.16-.39-2.1-.34-3.14-.55-2.08-.44-3.11-.69-2.05-.54-3.07-.85-2-.64-3-1-2-.74-3-1.15-1.95-.83-2.91-1.29-1.91-.93-2.85-1.43-1.86-1-2.77-1.57-1.8-1.11-2.69-1.7-1.75-1.2-2.6-1.84-1.69-1.28-2.51-1.95-1.63-1.37-2.41-2.08-1.56-1.45-2.31-2.2-1.48-1.52-2.19-2.31-1.41-1.59-2.08-2.41-1.33-1.66-2-2.51-1.25-1.72-1.84-2.6-1.15-1.78-1.7-2.69-1.07-1.84-1.57-2.77-1-1.89-1.43-2.85-.88-1.93-1.29-2.91-.79-2-1.15-3-.69-2-1-3-.59-2-.85-3.07-.49-2.07-.69-3.11-.39-2.08-.55-3.13-.28-2.11-.39-3.17-.18-2.11-.23-3.17-.08-2.12-.08-3.18,0-2.13.08-3.19.13-2.12.23-3.17.24-2.11.39-3.16.34-2.1.55-3.14.44-2.08.69-3.11.55-2,.85-3.07.65-2,1-3,.74-2,1.15-3,.84-1.95,1.29-2.91.93-1.91,1.43-2.85,1-1.86,1.57-2.77,1.11-1.8,1.7-2.69,1.21-1.75,1.84-2.6,1.28-1.69,2-2.51,1.36-1.62,2.08-2.41,1.44-1.56,2.19-2.31,1.52-1.48,2.31-2.19,1.59-1.41,2.41-2.08,1.66-1.33,2.51-2,1.72-1.25,2.6-1.84,1.78-1.15,2.69-1.7,1.84-1.07,2.77-1.57,1.89-1,2.85-1.43,1.93-.88,2.91-1.29,2-.79,3-1.15,2-.69,3-1,2-.59,3.07-.84,2.07-.5,3.11-.7,2.09-.39,3.14-.55,2.1-.28,3.16-.39,2.11-.18,3.17-.23,2.12-.08,3.19-.08,2.12,0,3.18.08,2.12.13,3.17.23,2.11.24,3.16.39,2.1.34,3.14.55,2.08.44,3.11.7,2,.54,3.07.84,2,.65,3,1,2,.74,3,1.15,2,.84,2.91,1.29,1.91.93,2.85,1.43,1.86,1,2.77,1.57,1.81,1.11,2.69,1.7,1.75,1.21,2.6,1.84,1.69,1.28,2.51,2,1.63,1.36,2.41,2.08,1.56,1.44,2.31,2.19,1.48,1.52,2.19,2.31,1.41,1.59,2.08,2.41,1.33,1.66,2,2.51,1.25,1.72,1.84,2.6,1.15,1.78,1.7,2.69,1.07,1.84,1.57,2.77,1,1.89,1.43,2.85.89,1.93,1.29,2.91.79,2,1.15,3,.69,2,1,3,.59,2,.85,3.07.49,2.07.69,3.11.39,2.09.55,3.14.28,2.1.39,3.16.18,2.11.23,3.17S618.48,232,618.48,233Z"/></g><g class="cls-6"><path class="cls-7" d="M405.59,233c0,1.06,0,2.12-.07,3.18s-.13,2.12-.24,3.17-.23,2.11-.39,3.17-.34,2.09-.54,3.13-.44,2.08-.7,3.11-.54,2.05-.85,3.07-.64,2-1,3-.74,2-1.14,3-.84,1.95-1.29,2.91-.94,1.91-1.44,2.85-1,1.86-1.57,2.77-1.11,1.81-1.7,2.69-1.2,1.75-1.83,2.6-1.29,1.69-2,2.51-1.37,1.63-2.08,2.41-1.45,1.56-2.2,2.31-1.52,1.48-2.3,2.2-1.59,1.4-2.41,2.08-1.66,1.32-2.52,1.95-1.72,1.25-2.6,1.84-1.78,1.16-2.69,1.7-1.83,1.07-2.77,1.57-1.88,1-2.84,1.43-1.93.89-2.91,1.29-2,.79-3,1.15-2,.69-3,1-2,.59-3.07.85-2.06.49-3.1.69-2.09.39-3.14.55-2.11.28-3.16.39-2.12.18-3.18.23-2.12.08-3.18.08-2.12,0-3.18-.08-2.12-.13-3.18-.23-2.11-.24-3.16-.39-2.1-.34-3.14-.55-2.07-.44-3.1-.69-2.06-.54-3.07-.85-2-.64-3-1-2-.74-3-1.15-1.95-.83-2.91-1.29-1.91-.93-2.84-1.43-1.86-1-2.77-1.57-1.81-1.11-2.69-1.7-1.75-1.2-2.61-1.84-1.69-1.28-2.51-1.95-1.62-1.37-2.41-2.08-1.55-1.45-2.3-2.2-1.49-1.52-2.2-2.31-1.41-1.59-2.08-2.41-1.33-1.66-2-2.51-1.24-1.72-1.83-2.6-1.16-1.78-1.71-2.69-1.07-1.84-1.57-2.77-1-1.89-1.43-2.85-.88-1.93-1.29-2.91-.79-2-1.14-3-.69-2-1-3-.59-2-.85-3.07-.49-2.07-.7-3.11-.39-2.08-.54-3.13-.29-2.11-.39-3.17-.19-2.11-.24-3.17-.08-2.12-.08-3.18,0-2.13.08-3.19.13-2.12.24-3.17.23-2.11.39-3.16.33-2.1.54-3.14.44-2.08.7-3.11.54-2,.85-3.07.64-2,1-3,.74-2,1.14-3,.84-1.95,1.29-2.91.93-1.91,1.43-2.85,1-1.86,1.57-2.77,1.12-1.8,1.71-2.69,1.2-1.75,1.83-2.6,1.29-1.69,2-2.51,1.37-1.62,2.08-2.41,1.44-1.56,2.2-2.31,1.51-1.48,2.3-2.19,1.59-1.41,2.41-2.08,1.66-1.33,2.51-2,1.72-1.25,2.61-1.84,1.78-1.15,2.69-1.7,1.83-1.07,2.77-1.57,1.88-1,2.84-1.43,1.93-.88,2.91-1.29,2-.79,3-1.15,2-.69,3-1,2-.59,3.07-.84,2.06-.5,3.1-.7,2.09-.39,3.14-.55,2.1-.28,3.16-.39,2.12-.18,3.18-.23,2.12-.08,3.18-.08,2.12,0,3.18.08,2.12.13,3.18.23,2.11.24,3.16.39,2.09.34,3.14.55,2.07.44,3.1.7,2.06.54,3.07.84,2,.65,3,1,2,.74,3,1.15,1.95.84,2.91,1.29,1.9.93,2.84,1.43,1.86,1,2.77,1.57,1.81,1.11,2.69,1.7,1.75,1.21,2.6,1.84,1.69,1.28,2.52,2,1.62,1.36,2.41,2.08,1.55,1.44,2.3,2.19,1.49,1.52,2.2,2.31,1.4,1.59,2.08,2.41,1.32,1.66,2,2.51,1.24,1.72,1.83,2.6,1.16,1.78,1.7,2.69,1.07,1.84,1.57,2.77,1,1.89,1.44,2.85.88,1.93,1.29,2.91.78,2,1.14,3,.69,2,1,3,.59,2,.85,3.07.49,2.07.7,3.11.39,2.09.54,3.14.29,2.1.39,3.16.18,2.11.24,3.17S405.59,232,405.59,233Z"/></g><g class="cls-8"><path class="cls-9" d="M183.73,765.09c0,1.07,0,2.13-.08,3.19s-.13,2.12-.23,3.17-.24,2.11-.39,3.16-.34,2.1-.55,3.14-.44,2.08-.7,3.11-.54,2-.85,3.07-.64,2-1,3-.74,2-1.15,3-.84,2-1.29,2.91-.93,1.91-1.43,2.85-1,1.86-1.57,2.77-1.12,1.8-1.71,2.69-1.2,1.75-1.83,2.6-1.28,1.69-2,2.51-1.37,1.62-2.08,2.41-1.44,1.56-2.19,2.31-1.52,1.48-2.31,2.19-1.59,1.41-2.41,2.08-1.66,1.33-2.51,2-1.72,1.25-2.6,1.84-1.78,1.15-2.69,1.7-1.84,1.07-2.78,1.57-1.88,1-2.84,1.43-1.93.88-2.91,1.29-2,.79-3,1.15-2,.69-3,1-2,.59-3.06.84-2.07.5-3.11.7-2.09.39-3.14.55-2.1.28-3.16.39-2.11.18-3.17.23-2.13.08-3.19.08-2.12,0-3.18-.08-2.12-.13-3.18-.23-2.11-.24-3.16-.39-2.09-.34-3.13-.55-2.08-.44-3.11-.7-2-.54-3.07-.84-2-.65-3-1-2-.74-3-1.15-2-.84-2.92-1.29-1.9-.93-2.84-1.43-1.86-1-2.77-1.57-1.81-1.11-2.69-1.7-1.75-1.21-2.6-1.84-1.69-1.28-2.51-2-1.63-1.36-2.41-2.08S73.73,811.72,73,811s-1.48-1.52-2.2-2.31-1.4-1.59-2.08-2.41-1.32-1.66-2-2.51-1.24-1.72-1.83-2.6-1.16-1.78-1.7-2.69-1.07-1.84-1.57-2.77-1-1.89-1.43-2.85-.89-1.93-1.29-2.91-.79-2-1.15-3-.69-2-1-3-.59-2-.85-3.07-.49-2.07-.7-3.11-.38-2.09-.54-3.14-.29-2.1-.39-3.16-.18-2.11-.23-3.17-.08-2.12-.08-3.19,0-2.12.08-3.18.13-2.12.23-3.17.23-2.12.39-3.17.34-2.09.54-3.13.44-2.08.7-3.11.54-2.05.85-3.07.64-2,1-3,.74-2,1.15-3,.83-1.95,1.29-2.91.93-1.91,1.43-2.85,1-1.86,1.57-2.77,1.11-1.81,1.7-2.69,1.2-1.75,1.83-2.6,1.29-1.69,2-2.51,1.37-1.63,2.08-2.41,1.45-1.56,2.2-2.31,1.52-1.48,2.31-2.2,1.59-1.4,2.41-2.08,1.65-1.32,2.51-2,1.72-1.25,2.6-1.84,1.78-1.16,2.69-1.7,1.83-1.07,2.77-1.57,1.89-1,2.84-1.43,1.94-.89,2.92-1.29,2-.79,3-1.15,2-.69,3-1,2-.59,3.07-.85,2.06-.49,3.11-.69,2.08-.39,3.13-.55,2.11-.28,3.16-.39,2.12-.18,3.18-.23,2.12-.08,3.18-.08,2.13,0,3.19.08,2.11.13,3.17.23,2.11.24,3.16.39,2.1.34,3.14.55,2.08.44,3.11.69,2,.54,3.06.85,2,.64,3,1,2,.74,3,1.15,1.95.83,2.91,1.29,1.91.93,2.84,1.43,1.86,1,2.78,1.57,1.8,1.11,2.69,1.7,1.75,1.2,2.6,1.84,1.69,1.28,2.51,2,1.62,1.37,2.41,2.08,1.56,1.45,2.31,2.2,1.48,1.52,2.19,2.31,1.41,1.59,2.08,2.41,1.33,1.66,2,2.51,1.24,1.72,1.83,2.6,1.16,1.78,1.71,2.69,1.07,1.84,1.57,2.77,1,1.89,1.43,2.85.88,1.93,1.29,2.91.79,2,1.15,3,.69,2,1,3,.6,2,.85,3.07.49,2.07.7,3.11.39,2.08.55,3.13.28,2.11.39,3.17.18,2.11.23,3.17S183.73,764,183.73,765.09Z"/></g><g class="cls-10"><path class="cls-11" d="M395.72,765.09c0,1.07,0,2.13-.08,3.19s-.13,2.12-.23,3.17-.24,2.11-.39,3.16-.34,2.1-.55,3.14-.44,2.08-.7,3.11-.54,2-.85,3.07-.64,2-1,3-.74,2-1.15,3-.84,2-1.29,2.91-.93,1.91-1.43,2.85-1,1.86-1.57,2.77-1.12,1.8-1.71,2.69-1.2,1.75-1.83,2.6-1.28,1.69-2,2.51-1.37,1.62-2.08,2.41-1.44,1.56-2.19,2.31-1.52,1.48-2.31,2.19-1.59,1.41-2.41,2.08-1.66,1.33-2.51,2-1.72,1.25-2.6,1.84-1.78,1.15-2.69,1.7-1.84,1.07-2.78,1.57-1.88,1-2.84,1.43-1.93.88-2.91,1.29-2,.79-3,1.15-2,.69-3,1-2,.59-3.07.84-2.07.5-3.11.7-2.09.39-3.14.55-2.1.28-3.16.39-2.11.18-3.17.23-2.13.08-3.19.08-2.12,0-3.18-.08-2.12-.13-3.18-.23-2.11-.24-3.16-.39-2.09-.34-3.13-.55-2.08-.44-3.11-.7-2.05-.54-3.07-.84-2-.65-3-1-2-.74-3-1.15-2-.84-2.91-1.29-1.91-.93-2.85-1.43-1.86-1-2.77-1.57-1.81-1.11-2.69-1.7-1.75-1.21-2.6-1.84-1.69-1.28-2.51-2-1.63-1.36-2.41-2.08-1.56-1.44-2.31-2.19-1.48-1.52-2.2-2.31-1.4-1.59-2.08-2.41-1.32-1.66-2-2.51-1.24-1.72-1.83-2.6-1.16-1.78-1.7-2.69-1.07-1.84-1.57-2.77-1-1.89-1.43-2.85-.89-1.93-1.29-2.91-.79-2-1.15-3-.69-2-1-3-.59-2-.85-3.07-.49-2.07-.7-3.11-.38-2.09-.54-3.14-.29-2.1-.39-3.16-.18-2.11-.23-3.17-.08-2.12-.08-3.19,0-2.12.08-3.18.13-2.12.23-3.17.23-2.12.39-3.17.34-2.09.54-3.13.44-2.08.7-3.11.54-2.05.85-3.07.64-2,1-3,.74-2,1.15-3,.83-1.95,1.29-2.91.93-1.91,1.43-2.85,1-1.86,1.57-2.77,1.11-1.81,1.7-2.69,1.2-1.75,1.83-2.6,1.29-1.69,2-2.51,1.37-1.63,2.08-2.41,1.45-1.56,2.2-2.31,1.52-1.48,2.31-2.2,1.59-1.4,2.41-2.08,1.65-1.32,2.51-2,1.72-1.25,2.6-1.84,1.78-1.16,2.69-1.7,1.83-1.07,2.77-1.57,1.89-1,2.85-1.43,1.93-.89,2.91-1.29,2-.79,3-1.15,2-.69,3-1,2-.59,3.07-.85,2.07-.49,3.11-.69,2.08-.39,3.13-.55,2.11-.28,3.16-.39,2.12-.18,3.18-.23,2.12-.08,3.18-.08,2.13,0,3.19.08,2.12.13,3.17.23,2.11.24,3.16.39,2.1.34,3.14.55,2.08.44,3.11.69,2.05.54,3.07.85,2,.64,3,1,2,.74,3,1.15,1.95.83,2.91,1.29,1.91.93,2.84,1.43,1.86,1,2.78,1.57,1.8,1.11,2.69,1.7,1.75,1.2,2.6,1.84,1.69,1.28,2.51,2,1.62,1.37,2.41,2.08,1.56,1.45,2.31,2.2,1.48,1.52,2.19,2.31,1.41,1.59,2.08,2.41,1.33,1.66,2,2.51,1.24,1.72,1.83,2.6,1.16,1.78,1.71,2.69,1.07,1.84,1.57,2.77,1,1.89,1.43,2.85.88,1.93,1.29,2.91.79,2,1.15,3,.69,2,1,3,.6,2,.85,3.07.49,2.07.7,3.11.39,2.08.55,3.13.28,2.11.39,3.17.18,2.11.23,3.17S395.72,764,395.72,765.09Z"/></g><g class="cls-12"><path class="cls-9" d="M607.42,766.66c0,1.06,0,2.12-.08,3.18s-.13,2.12-.23,3.18-.24,2.11-.39,3.16-.34,2.09-.55,3.14-.44,2.07-.7,3.1-.54,2.06-.85,3.07-.64,2-1,3-.74,2-1.15,3-.84,2-1.29,2.91-.93,1.9-1.43,2.84-1,1.86-1.57,2.77-1.12,1.81-1.71,2.69-1.2,1.75-1.83,2.61-1.28,1.68-2,2.51-1.36,1.62-2.08,2.41-1.44,1.55-2.19,2.3-1.52,1.49-2.31,2.2-1.59,1.4-2.41,2.08-1.66,1.32-2.51,2-1.72,1.24-2.6,1.83-1.78,1.16-2.69,1.7-1.84,1.07-2.77,1.57-1.89,1-2.85,1.44-1.93.88-2.91,1.29-2,.78-3,1.14-2,.69-3,1-2,.59-3.07.85-2.07.49-3.11.7-2.09.39-3.14.54-2.1.29-3.16.39-2.11.18-3.17.24-2.12.07-3.19.07-2.12,0-3.18-.07-2.12-.13-3.18-.24-2.11-.23-3.16-.39-2.09-.34-3.13-.54-2.08-.44-3.11-.7-2-.54-3.07-.85-2-.64-3-1-2-.74-3-1.14-2-.84-2.91-1.29-1.91-.94-2.85-1.44-1.86-1-2.77-1.57-1.81-1.11-2.69-1.7-1.75-1.2-2.6-1.83-1.69-1.29-2.51-2-1.63-1.37-2.41-2.08-1.56-1.45-2.31-2.2-1.48-1.52-2.2-2.3-1.4-1.59-2.08-2.41-1.32-1.66-1.95-2.51-1.25-1.73-1.84-2.61-1.16-1.78-1.7-2.69-1.07-1.83-1.57-2.77-1-1.88-1.43-2.84-.89-1.93-1.29-2.91-.79-2-1.15-3-.69-2-1-3-.59-2-.85-3.07-.49-2.06-.7-3.1-.38-2.09-.54-3.14-.29-2.11-.39-3.16-.18-2.12-.23-3.18-.08-2.12-.08-3.18,0-2.12.08-3.18.13-2.12.23-3.18.23-2.11.39-3.16.34-2.1.54-3.14.44-2.07.7-3.1.54-2.06.85-3.07.64-2,1-3,.74-2,1.15-3,.83-2,1.29-2.91.93-1.91,1.43-2.84,1-1.86,1.57-2.77,1.11-1.81,1.7-2.69,1.2-1.75,1.84-2.61,1.28-1.69,1.95-2.51,1.37-1.62,2.08-2.41,1.45-1.55,2.2-2.3,1.52-1.49,2.31-2.2,1.59-1.41,2.41-2.08,1.65-1.33,2.51-2,1.72-1.24,2.6-1.83,1.78-1.16,2.69-1.71S511,710,512,709.44s1.89-1,2.85-1.43,1.93-.88,2.91-1.29,2-.79,3-1.14,2-.69,3-1,2-.59,3.07-.85,2.07-.49,3.11-.7,2.08-.39,3.13-.54,2.11-.29,3.16-.39,2.12-.19,3.18-.24,2.12-.08,3.18-.08,2.13,0,3.19.08,2.12.13,3.17.24,2.11.23,3.16.39,2.1.33,3.14.54,2.08.44,3.11.7,2.05.54,3.07.85,2,.64,3,1,2,.74,3,1.14,2,.84,2.91,1.29,1.91.93,2.85,1.43,1.85,1,2.77,1.57,1.8,1.12,2.69,1.71,1.75,1.2,2.6,1.83,1.69,1.29,2.51,2,1.62,1.37,2.41,2.08,1.56,1.44,2.31,2.2,1.48,1.52,2.19,2.3,1.41,1.59,2.08,2.41,1.33,1.66,2,2.51,1.24,1.72,1.83,2.61,1.16,1.78,1.71,2.69,1.07,1.83,1.57,2.77,1,1.88,1.43,2.84.88,1.93,1.29,2.91.79,2,1.15,3,.69,2,1,3,.6,2,.85,3.07.49,2.06.7,3.1.39,2.09.55,3.14.28,2.1.39,3.16.18,2.12.23,3.18S607.42,765.6,607.42,766.66Z"/></g><g class="cls-13"><path class="cls-14" d="M121.83,262.23h12.3V246.86a3.18,3.18,0,0,1,.23-1.18A3.1,3.1,0,0,1,136,244a3.13,3.13,0,0,1,1.17-.23h15.38v-12.3H137.2a3.13,3.13,0,0,1-1.17-.23,3.1,3.1,0,0,1-1.67-1.67,3.13,3.13,0,0,1-.23-1.17V213h-12.3v15.38a3,3,0,0,1-.24,1.17,2.91,2.91,0,0,1-.66,1,3.08,3.08,0,0,1-1,.67,3.18,3.18,0,0,1-1.18.23H103.38v12.3h15.37a3.18,3.18,0,0,1,1.18.23,3.08,3.08,0,0,1,1,.67,2.91,2.91,0,0,1,.66,1,3,3,0,0,1,.24,1.18Zm15.37,6.15H118.75a3.13,3.13,0,0,1-1.17-.23,3.1,3.1,0,0,1-1.67-1.67,3.13,3.13,0,0,1-.23-1.17V249.93H100.3a3.13,3.13,0,0,1-1.17-.23A3.1,3.1,0,0,1,97.46,248a3.13,3.13,0,0,1-.23-1.17V228.41a3.18,3.18,0,0,1,.23-1.18,3.1,3.1,0,0,1,1.67-1.67,3.13,3.13,0,0,1,1.17-.23h15.38V210a3.18,3.18,0,0,1,.23-1.18,3.1,3.1,0,0,1,1.67-1.67,3.13,3.13,0,0,1,1.17-.23H137.2a3.18,3.18,0,0,1,1.18.23,3.08,3.08,0,0,1,1,.67,2.91,2.91,0,0,1,.66,1,3,3,0,0,1,.24,1.18v15.37h15.37a3.18,3.18,0,0,1,1.18.23,3.08,3.08,0,0,1,1,.67,2.91,2.91,0,0,1,.66,1,3,3,0,0,1,.24,1.18v18.45a3,3,0,0,1-.24,1.17,2.91,2.91,0,0,1-.66,1,3.08,3.08,0,0,1-1,.67,3.18,3.18,0,0,1-1.18.23H140.28v15.38a3,3,0,0,1-.24,1.17,2.91,2.91,0,0,1-.66,1,3.08,3.08,0,0,1-1,.67A3.18,3.18,0,0,1,137.2,268.38Z"/></g><g class="cls-15"><path class="cls-14" d="M117.62,768.58a26.45,26.45,0,0,1-6.87,3.09v-4.23a26.52,26.52,0,0,0,4.8-2.35c2.19-1.3,4.26-2.52,7.39-2.52s5.16,1.22,7.31,2.52a26.74,26.74,0,0,0,4.88,2.4v4.22a26.39,26.39,0,0,1-6.95-3.17c-1.87-1.1-3.25-1.91-5.24-1.91S119.53,767.44,117.62,768.58Zm39.85-6c0,14.83-6.05,21.41-12.23,24.29a26.26,26.26,0,0,0,4.11-14.13V760.54a4.06,4.06,0,0,1,8.12,0Zm-54.84,10.16V766a36.78,36.78,0,0,0,10.8-4.38c3.34-1.79,5.73-3.13,9.51-3.13s6.18,1.34,9.51,3.17a37.91,37.91,0,0,0,10.8,4.38v6.71a20.31,20.31,0,1,1-40.62,0ZM88.41,762.57v-2a4.06,4.06,0,0,1,8.12,0v12.19a26.61,26.61,0,0,0,4.11,14.13C94.46,784,88.41,777.4,88.41,762.57Zm65-12.19a10.15,10.15,0,0,0-10.08,9.35c-7.63-2-11.53-7.32-20.39-7.32s-12.76,5.28-20.39,7.32a10.13,10.13,0,0,0-20.23.81v2c0,24.37,14.62,31.73,26.48,32.42a26.22,26.22,0,0,0,28.28,0c11.86-.69,26.49-8,26.49-32.42v-2A10.16,10.16,0,0,0,153.41,750.38Z"/></g><g class="cls-16"><rect class="cls-14" x="517.44" y="741.38" width="34.13" height="5.69"/><path class="cls-14" d="M523.13,767h7.11v-7.11h8.53V767h7.11v8.53h-7.11v7.11h-8.53v-7.11h-7.11Zm-8.53,25.59h39.81V749.92H514.6Z"/><path class="cls-14" d="M565.78,749.92c-4.77,0-8.53,5-8.53,11.37,0,5,2.36,9.16,5.69,10.69v20.59h5.69V772c3.32-1.53,5.68-5.66,5.68-10.69C574.31,754.92,570.56,749.92,565.78,749.92Z"/></g><g class="cls-17"><path class="cls-14" d="M331.8,754.13a3.31,3.31,0,0,1,6.52,0l.7,4.19h-7.91Zm-2.74,11.13h12a5.21,5.21,0,0,0,5.14-6.07l-1-6.21A10.23,10.23,0,0,0,325,753l-1,6.21A5.19,5.19,0,0,0,329.06,765.26Z"/><path class="cls-14" d="M299.2,762.17a4.33,4.33,0,0,0-.35,3.06c.55,2.39,2.63,3.57,5.31,3.47h6.76c2.88,0,5.24-2,5.24-4.48a4.67,4.67,0,0,0-.25-1.39.27.27,0,0,1,0-.27,3.77,3.77,0,0,0,.48-1.84,4.08,4.08,0,0,0-1.24-2.85.29.29,0,0,1-.07-.34,3.65,3.65,0,0,0-3.4-4.83.32.32,0,0,1-.25-.1,3.7,3.7,0,0,0-2.87-1.21,3.93,3.93,0,0,0-2.61.9.28.28,0,0,1-.31.07,4,4,0,0,0-1.59-.31,4.31,4.31,0,0,0-4.31,3.88.29.29,0,0,1-.1.21,4.22,4.22,0,0,0-1.42,3.64,4.33,4.33,0,0,0,.87,2.08A.28.28,0,0,1,299.2,762.17Z"/><path class="cls-14" d="M321.43,779.14a3.35,3.35,0,0,1,1.7-1.81A29.13,29.13,0,0,1,335,774.8a29.68,29.68,0,0,1,11.9,2.53,3.23,3.23,0,0,1,1.69,1.81ZM349.77,771a36.28,36.28,0,0,0-14.71-3.12A37,37,0,0,0,320.35,771a10.39,10.39,0,0,0-6.1,9.51v5.58h41.62v-5.58A10.37,10.37,0,0,0,349.77,771Z"/><path class="cls-14" d="M297.67,774.21a7,7,0,0,0-4.23,6.42v5.44h15.61v-5.58a15.54,15.54,0,0,1,2.18-7.94,23.52,23.52,0,0,0-13.56,1.66Z"/><path class="cls-14" d="M372.46,774.21a23.56,23.56,0,0,0-13.57-1.66,15.55,15.55,0,0,1,2.19,7.94v5.58h15.61v-5.44A7,7,0,0,0,372.46,774.21Z"/><path class="cls-14" d="M369.75,761.79v-1.73a7,7,0,0,0-6.94-6.94h-6.94a1.73,1.73,0,0,0-1.35,2.81l2.43,2.19a6.93,6.93,0,1,0,12.8,3.67Z"/></g><g class="cls-18"><path class="cls-14" d="M360.53,257.74H325.65v-46.5H346v14.53h14.54ZM348.9,205.43H325.65a5.82,5.82,0,0,0-5.81,5.81v46.5a5.8,5.8,0,0,0,5.78,5.81h34.91a5.83,5.83,0,0,0,5.81-5.81V222.86Zm-17.44,29.06h23.25v5.81H331.46Zm0,11.62h23.25v5.82H331.46Z"/></g><g class="cls-19"><path class="cls-14" d="M561.6,245.12a9.75,9.75,0,0,1-6.92,2.89,9.64,9.64,0,0,1-6.93-2.89,9.79,9.79,0,0,1-2.88-6.93,9.79,9.79,0,0,1,16.73-6.92,9.75,9.75,0,0,1,2.89,6.92A9.64,9.64,0,0,1,561.6,245.12ZM535,208.7h23l16.41,16.4v28.16l-6-6a16.54,16.54,0,1,0-4.63,4.59l9.35,9.39H535Zm26.25-6.57H535a6.56,6.56,0,0,0-6.53,6.57l0,52.5a6.55,6.55,0,0,0,6.53,6.56h39.41a6.58,6.58,0,0,0,6.56-6.56V221.82Z"/></g><path class="cls-9" d="M681.44,765l-31.67-31.67-14.83,14.83L618.1,765h18.3v.15A94,94,0,0,1,448.46,765h-23.8a118.64,118.64,0,0,0,237.28.15V765Z"/><path class="cls-11" d="M469.71,764.08,438,795.75l-14.83-14.83-16.84-16.84h18.3v-.15a94,94,0,0,0-187.94.15h-23.8a118.64,118.64,0,0,1,237.28-.15v.15Z"/><path class="cls-9" d="M256.78,764.72l-31.67-31.67-14.83,14.83-16.84,16.84h18.3v.15a94,94,0,0,1-187.94-.15H0a118.64,118.64,0,0,0,237.28.15v-.15Z"/><path class="cls-5" d="M692.69,231.78,661,263.45l-14.83-14.83-16.84-16.84h18.3v-.15a94,94,0,0,0-187.94.15h-23.8a118.64,118.64,0,0,1,237.28-.15v.15Z"/><path class="cls-7" d="M478.11,232.35l-31.67-31.67-14.83,14.83-16.84,16.84h18.3v.15a94,94,0,0,1-187.94-.15h-23.8a118.64,118.64,0,0,0,237.28.15v-.15Z"/><path class="cls-3" d="M266.38,231.49l-31.67,31.67-14.83-14.83L203,231.49h18.3v-.15a94,94,0,0,0-187.94.15H9.6a118.64,118.64,0,0,1,237.28-.15v.15Z"/><text class="cls-20" transform="translate(81.33 359.92)">Paso 1</text><text class="cls-21" transform="translate(60.93 401.24)">Confirmación <tspan x="-39.15" y="21.6">diagnóstico de Cáncer</tspan></text><text class="cls-20" transform="translate(305.75 20.38)">Paso 2</text><text class="cls-21" transform="translate(273.38 61.7)">Ingreso a comité<tspan x="25.38" y="21.6">oncológico</tspan></text><text class="cls-20" transform="translate(510.69 360.14)">Paso 3</text><text class="cls-21" transform="translate(458.44 401.46)">Visita a Oncólogo de <tspan x="53.22" y="21.6">Biocenter</tspan></text><text class="cls-20" transform="translate(79.82 553.29)">Paso 4</text><text class="cls-21" transform="translate(30.38 594.61)">Decisión terapéutica<tspan x="-8.26" y="21.6">(exámenes, imágenes,</tspan><tspan x="39.62" y="43.2">cirugía, etc)</tspan></text><text class="cls-20" transform="translate(290.18 892.42)">Paso 5</text><text class="cls-21" transform="translate(253.7 933.74)">Ingreso a estudio <tspan x="50.84" y="21.6">clínico</tspan></text><text class="cls-20" transform="translate(628.97 552.44)">Paso 6</text><text class="cls-21" transform="translate(578.89 593.76)">Inicio de tratamiento<tspan x="30.2" y="21.6">y seguimiento</tspan></text></g></g></svg>