<svg xmlns="http://www.w3.org/2000/svg" xmlns:xlink="http://www.w3.org/1999/xlink" viewBox="0 0 1403.19 433.43"><defs><style>.cls-1{fill:none;}.cls-2{clip-path:url(#clip-path);}.cls-3{fill:#86eae9;}.cls-4{clip-path:url(#clip-path-2);}.cls-5{fill:#37c9ef;}.cls-6{clip-path:url(#clip-path-3);}.cls-7{fill:#3edad8;}.cls-8{clip-path:url(#clip-path-4);}.cls-9{fill:#2c92d5;}.cls-10{clip-path:url(#clip-path-5);}.cls-11{fill:#13538a;}.cls-12{clip-path:url(#clip-path-6);}.cls-13{clip-path:url(#clip-path-7);}.cls-14{fill:#fff;}.cls-15{clip-path:url(#clip-path-8);}.cls-16{clip-path:url(#clip-path-9);}.cls-17{clip-path:url(#clip-path-10);}.cls-18{clip-path:url(#clip-path-11);}.cls-19{clip-path:url(#clip-path-12);}.cls-20{font-size:24px;font-family:Poppins-Regular, Poppins;}.cls-21{font-size:18px;font-family:Poppins-Light, Poppins;font-weight:300;}</style><clipPath id="clip-path"><rect class="cls-1" x="53.36" y="168.15" width="129.75" height="129.75"/></clipPath><clipPath id="clip-path-2"><rect class="cls-1" x="479.13" y="168.15" width="129.75" height="129.75"/></clipPath><clipPath id="clip-path-3"><rect class="cls-1" x="266.25" y="168.15" width="129.75" height="129.75"/></clipPath><clipPath id="clip-path-4"><rect class="cls-1" x="692.02" y="168.15" width="129.75" height="129.75"/></clipPath><clipPath id="clip-path-5"><rect class="cls-1" x="904.01" y="168.15" width="129.75" height="129.75"/></clipPath><clipPath id="clip-path-6"><rect class="cls-1" x="1115.71" y="169.72" width="129.75" height="129.75"/></clipPath><clipPath id="clip-path-7"><rect class="cls-1" x="87.63" y="206.88" width="61.5" height="61.5"/></clipPath><clipPath id="clip-path-8"><rect class="cls-1" x="712.23" y="193.94" width="97.5" height="97.5"/></clipPath><clipPath id="clip-path-9"><rect class="cls-1" x="1146.95" y="200.79" width="68.25" height="68.25"/></clipPath><clipPath id="clip-path-10"><rect class="cls-1" x="931.48" y="191.57" width="83.25" height="83.25"/></clipPath><clipPath id="clip-path-11"><rect class="cls-1" x="298.61" y="199.62" width="69.75" height="69.75"/></clipPath><clipPath id="clip-path-12"><rect class="cls-1" x="505.7" y="195.57" width="78.75" height="78.75"/></clipPath></defs><g id="Capa_2" data-name="Capa 2"><g id="Capa_1-2" data-name="Capa 1"><g class="cls-2"><path class="cls-3" d="M183.11,233c0,1.06,0,2.12-.08,3.18s-.13,2.12-.23,3.18-.24,2.11-.39,3.16-.34,2.09-.55,3.13-.44,2.08-.7,3.11-.54,2.05-.84,3.07-.65,2-1,3-.74,2-1.15,3-.84,1.95-1.29,2.91-.93,1.91-1.43,2.85-1,1.86-1.57,2.77-1.11,1.81-1.7,2.69-1.21,1.75-1.84,2.6-1.28,1.69-2,2.51-1.36,1.63-2.08,2.41-1.44,1.56-2.19,2.31-1.52,1.48-2.31,2.2-1.59,1.4-2.41,2.08-1.66,1.32-2.51,1.95-1.72,1.25-2.6,1.84-1.78,1.16-2.69,1.7-1.84,1.07-2.77,1.57-1.89,1-2.85,1.43-1.93.89-2.91,1.29-2,.79-3,1.15-2,.69-3,1-2,.59-3.07.85-2.07.49-3.11.7-2.09.38-3.14.54-2.1.29-3.16.39-2.11.18-3.17.23-2.12.08-3.19.08-2.12,0-3.18-.08-2.12-.13-3.18-.23-2.11-.23-3.16-.39-2.09-.34-3.13-.54-2.08-.44-3.11-.7-2-.54-3.07-.85-2-.64-3-1-2-.74-3-1.15-2-.83-2.91-1.29-1.91-.93-2.85-1.43-1.86-1-2.77-1.57-1.81-1.11-2.69-1.7-1.75-1.2-2.6-1.84-1.69-1.28-2.51-1.95-1.63-1.37-2.41-2.08-1.56-1.45-2.31-2.2-1.48-1.52-2.2-2.31-1.4-1.59-2.08-2.41-1.32-1.65-2-2.51-1.25-1.72-1.84-2.6-1.16-1.78-1.7-2.69-1.07-1.84-1.57-2.77-1-1.89-1.43-2.85-.89-1.93-1.29-2.91-.79-2-1.15-3-.69-2-1-3-.59-2-.85-3.07-.49-2.07-.69-3.11-.39-2.08-.55-3.13-.28-2.11-.39-3.16-.18-2.12-.23-3.18-.08-2.12-.08-3.18,0-2.13.08-3.19.13-2.12.23-3.17.24-2.11.39-3.16.34-2.1.55-3.14.43-2.08.69-3.11.54-2,.85-3.07.64-2,1-3,.74-2,1.15-3,.83-1.95,1.29-2.91.93-1.91,1.43-2.85,1-1.85,1.57-2.77,1.11-1.8,1.7-2.69,1.2-1.75,1.84-2.6,1.28-1.69,2-2.51,1.37-1.62,2.08-2.41,1.45-1.56,2.2-2.31,1.52-1.48,2.31-2.19,1.59-1.41,2.41-2.08,1.65-1.33,2.51-2,1.72-1.24,2.6-1.83,1.78-1.16,2.69-1.71,1.84-1.07,2.77-1.57,1.89-1,2.85-1.43,1.93-.88,2.91-1.29,2-.79,3-1.15,2-.69,3-1,2-.6,3.07-.85,2.07-.49,3.11-.7,2.08-.39,3.13-.55,2.11-.28,3.16-.39,2.12-.18,3.18-.23,2.12-.08,3.18-.08,2.13,0,3.19.08,2.12.13,3.17.23,2.11.24,3.16.39,2.1.34,3.14.55,2.08.44,3.11.7,2.05.54,3.07.85,2,.64,3,1,2,.74,3,1.15,1.95.84,2.91,1.29,1.91.93,2.85,1.43,1.86,1,2.77,1.57,1.8,1.12,2.69,1.71,1.75,1.2,2.6,1.83,1.69,1.28,2.51,2,1.62,1.36,2.41,2.08,1.56,1.44,2.31,2.19,1.48,1.52,2.19,2.31,1.41,1.59,2.08,2.41,1.33,1.66,2,2.51,1.25,1.72,1.84,2.6,1.15,1.78,1.7,2.69,1.07,1.84,1.57,2.77,1,1.89,1.43,2.85.88,1.93,1.29,2.91.79,2,1.15,3,.69,2,1,3,.59,2,.84,3.07.5,2.07.7,3.11.39,2.09.55,3.14.28,2.1.39,3.16.18,2.11.23,3.17S183.11,232,183.11,233Z"/></g><g class="cls-4"><path class="cls-5" d="M608.88,233c0,1.06,0,2.12-.08,3.18s-.13,2.12-.23,3.18-.23,2.11-.39,3.16-.34,2.09-.54,3.13-.44,2.08-.7,3.11-.54,2.05-.85,3.07-.64,2-1,3-.74,2-1.15,3-.83,1.95-1.29,2.91-.93,1.91-1.43,2.85-1,1.86-1.57,2.77-1.11,1.81-1.7,2.69-1.2,1.75-1.84,2.6-1.28,1.69-2,2.51-1.37,1.63-2.08,2.41-1.45,1.56-2.2,2.31-1.52,1.48-2.31,2.2-1.59,1.4-2.41,2.08-1.65,1.32-2.51,1.95-1.72,1.25-2.6,1.84-1.78,1.16-2.69,1.7-1.83,1.07-2.77,1.57-1.89,1-2.85,1.43-1.93.89-2.91,1.29-2,.79-3,1.15-2,.69-3,1-2,.59-3.07.85-2.07.49-3.11.7-2.08.38-3.13.54-2.11.29-3.16.39-2.12.18-3.18.23-2.12.08-3.18.08-2.13,0-3.19-.08-2.12-.13-3.17-.23-2.11-.23-3.16-.39-2.1-.34-3.14-.54-2.08-.44-3.11-.7-2-.54-3.07-.85-2-.64-3-1-2-.74-3-1.15-1.95-.83-2.91-1.29-1.91-.93-2.85-1.43-1.85-1-2.77-1.57-1.8-1.11-2.69-1.7-1.75-1.2-2.6-1.84-1.69-1.28-2.51-1.95-1.62-1.37-2.41-2.08-1.56-1.45-2.31-2.2-1.48-1.52-2.19-2.31-1.41-1.59-2.08-2.41-1.33-1.65-2-2.51-1.24-1.72-1.83-2.6-1.16-1.78-1.71-2.69-1.07-1.84-1.57-2.77-1-1.89-1.43-2.85-.88-1.93-1.29-2.91-.79-2-1.15-3-.69-2-1-3-.6-2-.85-3.07-.49-2.07-.7-3.11-.39-2.08-.55-3.13-.28-2.11-.39-3.16-.18-2.12-.23-3.18-.08-2.12-.08-3.18,0-2.13.08-3.19.13-2.12.23-3.17.24-2.11.39-3.16.34-2.1.55-3.14.44-2.08.7-3.11.54-2,.85-3.07.64-2,1-3,.74-2,1.15-3,.84-1.95,1.29-2.91.93-1.91,1.43-2.85,1-1.85,1.57-2.77,1.12-1.8,1.71-2.69,1.2-1.75,1.83-2.6,1.28-1.69,2-2.51,1.36-1.62,2.08-2.41,1.44-1.56,2.19-2.31,1.52-1.48,2.31-2.19,1.59-1.41,2.41-2.08,1.66-1.33,2.51-2,1.72-1.24,2.6-1.83,1.78-1.16,2.69-1.71,1.84-1.07,2.77-1.57,1.89-1,2.85-1.43,1.93-.88,2.91-1.29,2-.79,3-1.15,2-.69,3-1,2-.6,3.07-.85,2.07-.49,3.11-.7,2.09-.39,3.14-.55,2.1-.28,3.16-.39,2.11-.18,3.17-.23,2.13-.08,3.19-.08,2.12,0,3.18.08,2.12.13,3.18.23,2.11.24,3.16.39,2.09.34,3.13.55,2.08.44,3.11.7,2.05.54,3.07.85,2,.64,3,1,2,.74,3,1.15,1.95.84,2.91,1.29,1.91.93,2.85,1.43,1.86,1,2.77,1.57,1.81,1.12,2.69,1.71,1.75,1.2,2.6,1.83,1.69,1.28,2.51,2,1.63,1.36,2.41,2.08,1.56,1.44,2.31,2.19,1.48,1.52,2.2,2.31,1.4,1.59,2.08,2.41,1.32,1.66,2,2.51,1.25,1.72,1.84,2.6,1.16,1.78,1.7,2.69,1.07,1.84,1.57,2.77,1,1.89,1.43,2.85.89,1.93,1.29,2.91.79,2,1.15,3,.69,2,1,3,.59,2,.85,3.07.49,2.07.7,3.11.38,2.09.54,3.14.29,2.1.39,3.16.18,2.11.23,3.17S608.88,232,608.88,233Z"/></g><g class="cls-6"><path class="cls-7" d="M396,233c0,1.06,0,2.12-.08,3.18s-.13,2.12-.24,3.18-.23,2.11-.39,3.16-.33,2.09-.54,3.13-.44,2.08-.7,3.11-.54,2.05-.85,3.07-.64,2-1,3-.74,2-1.14,3-.84,1.95-1.29,2.91-.93,1.91-1.44,2.85-1,1.86-1.56,2.77-1.12,1.81-1.71,2.69-1.2,1.75-1.83,2.6-1.29,1.69-2,2.51-1.37,1.63-2.08,2.41-1.45,1.56-2.2,2.31-1.52,1.48-2.3,2.2-1.59,1.4-2.41,2.08-1.66,1.32-2.51,1.95-1.72,1.25-2.61,1.84-1.78,1.16-2.69,1.7-1.83,1.07-2.77,1.57-1.88,1-2.84,1.43-1.93.89-2.91,1.29-2,.79-3,1.15-2,.69-3,1-2,.59-3.07.85-2.06.49-3.1.7-2.09.38-3.14.54-2.1.29-3.16.39-2.12.18-3.18.23-2.12.08-3.18.08-2.12,0-3.18-.08-2.12-.13-3.18-.23-2.11-.23-3.16-.39-2.09-.34-3.14-.54-2.07-.44-3.1-.7-2.06-.54-3.07-.85-2-.64-3-1-2-.74-3-1.15-2-.83-2.91-1.29-1.91-.93-2.84-1.43-1.86-1-2.77-1.57-1.81-1.11-2.69-1.7-1.75-1.2-2.61-1.84-1.69-1.28-2.51-1.95-1.62-1.37-2.41-2.08-1.55-1.45-2.3-2.2-1.49-1.52-2.2-2.31-1.41-1.59-2.08-2.41-1.33-1.65-2-2.51-1.24-1.72-1.83-2.6-1.16-1.78-1.7-2.69-1.07-1.84-1.57-2.77-1-1.89-1.44-2.85-.88-1.93-1.29-2.91-.78-2-1.14-3-.69-2-1-3-.59-2-.85-3.07-.49-2.07-.7-3.11-.39-2.08-.54-3.13-.29-2.11-.39-3.16-.18-2.12-.24-3.18-.07-2.12-.07-3.18,0-2.13.07-3.19.13-2.12.24-3.17.23-2.11.39-3.16.33-2.1.54-3.14.44-2.08.7-3.11.54-2,.85-3.07.64-2,1-3,.74-2,1.14-3,.84-1.95,1.29-2.91.94-1.91,1.44-2.85,1-1.85,1.57-2.77,1.11-1.8,1.7-2.69,1.2-1.75,1.83-2.6,1.29-1.69,2-2.51,1.37-1.62,2.08-2.41,1.45-1.56,2.2-2.31,1.52-1.48,2.3-2.19,1.59-1.41,2.41-2.08,1.66-1.33,2.51-2,1.72-1.24,2.61-1.83,1.78-1.16,2.69-1.71,1.83-1.07,2.77-1.57,1.88-1,2.84-1.43,1.93-.88,2.91-1.29,2-.79,3-1.15,2-.69,3-1,2-.6,3.07-.85,2.06-.49,3.1-.7,2.09-.39,3.14-.55,2.1-.28,3.16-.39,2.12-.18,3.18-.23,2.12-.08,3.18-.08,2.12,0,3.18.08,2.12.13,3.18.23,2.11.24,3.16.39,2.1.34,3.14.55,2.07.44,3.1.7,2.06.54,3.07.85,2,.64,3,1,2,.74,3,1.15,1.95.84,2.91,1.29,1.91.93,2.84,1.43,1.86,1,2.77,1.57,1.81,1.12,2.69,1.71,1.75,1.2,2.61,1.83,1.69,1.28,2.51,2,1.62,1.36,2.41,2.08,1.55,1.44,2.3,2.19,1.49,1.52,2.2,2.31,1.41,1.59,2.08,2.41,1.33,1.66,2,2.51,1.24,1.72,1.83,2.6,1.16,1.78,1.71,2.69,1.06,1.84,1.56,2.77,1,1.89,1.44,2.85.88,1.93,1.29,2.91.79,2,1.14,3,.69,2,1,3,.59,2,.85,3.07.49,2.07.7,3.11.39,2.09.54,3.14.29,2.1.39,3.16.19,2.11.24,3.17S396,232,396,233Z"/></g><g class="cls-8"><path class="cls-9" d="M821.77,233c0,1.06,0,2.12-.08,3.18s-.13,2.12-.23,3.18-.24,2.11-.39,3.16-.34,2.09-.55,3.13-.44,2.08-.7,3.11-.54,2.05-.85,3.07-.64,2-1,3-.74,2-1.15,3-.84,1.95-1.29,2.91-.93,1.91-1.43,2.85-1,1.86-1.57,2.77-1.12,1.81-1.7,2.69-1.21,1.75-1.84,2.6-1.28,1.69-2,2.51-1.36,1.63-2.08,2.41-1.44,1.56-2.19,2.31-1.52,1.48-2.31,2.2-1.59,1.4-2.41,2.08-1.66,1.32-2.51,1.95-1.72,1.25-2.6,1.84-1.78,1.16-2.69,1.7-1.84,1.07-2.77,1.57-1.89,1-2.85,1.43-1.93.89-2.91,1.29-2,.79-3,1.15-2,.69-3,1-2,.59-3.07.85-2.07.49-3.11.7-2.09.38-3.14.54-2.1.29-3.16.39-2.11.18-3.17.23-2.12.08-3.19.08-2.12,0-3.18-.08-2.12-.13-3.18-.23-2.11-.23-3.16-.39-2.09-.34-3.13-.54-2.08-.44-3.11-.7-2-.54-3.07-.85-2-.64-3-1-2-.74-3-1.15-2-.83-2.91-1.29-1.91-.93-2.85-1.43-1.86-1-2.77-1.57-1.81-1.11-2.69-1.7-1.75-1.2-2.6-1.84-1.69-1.28-2.51-1.95-1.63-1.37-2.41-2.08-1.56-1.45-2.31-2.2-1.48-1.52-2.2-2.31-1.4-1.59-2.08-2.41-1.32-1.65-2-2.51-1.25-1.72-1.84-2.6-1.16-1.78-1.7-2.69-1.07-1.84-1.57-2.77-1-1.89-1.43-2.85-.89-1.93-1.29-2.91-.79-2-1.15-3-.69-2-1-3-.59-2-.85-3.07-.49-2.07-.69-3.11-.39-2.08-.55-3.13-.29-2.11-.39-3.16-.18-2.12-.23-3.18S692,234.09,692,233s0-2.13.08-3.19.13-2.12.23-3.17.23-2.11.39-3.16.34-2.1.55-3.14.43-2.08.69-3.11.54-2,.85-3.07.64-2,1-3,.74-2,1.15-3,.83-1.95,1.29-2.91.93-1.91,1.43-2.85,1-1.85,1.57-2.77,1.11-1.8,1.7-2.69,1.2-1.75,1.84-2.6,1.28-1.69,2-2.51,1.37-1.62,2.08-2.41,1.45-1.56,2.2-2.31,1.52-1.48,2.31-2.19,1.59-1.41,2.41-2.08,1.65-1.33,2.51-2,1.72-1.24,2.6-1.83,1.78-1.16,2.69-1.71,1.84-1.07,2.77-1.57,1.89-1,2.85-1.43,1.93-.88,2.91-1.29,2-.79,3-1.15,2-.69,3-1,2-.6,3.07-.85,2.07-.49,3.11-.7,2.08-.39,3.13-.55,2.11-.28,3.16-.39,2.12-.18,3.18-.23,2.12-.08,3.18-.08,2.13,0,3.19.08,2.12.13,3.17.23,2.11.24,3.16.39,2.1.34,3.14.55,2.08.44,3.11.7,2.05.54,3.07.85,2,.64,3,1,2,.74,3,1.15,1.95.84,2.91,1.29,1.91.93,2.85,1.43,1.86,1,2.77,1.57,1.8,1.12,2.69,1.71,1.75,1.2,2.6,1.83,1.69,1.28,2.51,2,1.62,1.36,2.41,2.08,1.56,1.44,2.31,2.19,1.48,1.52,2.19,2.31,1.41,1.59,2.08,2.41,1.33,1.66,2,2.51,1.25,1.72,1.84,2.6,1.15,1.78,1.7,2.69,1.07,1.84,1.57,2.77,1,1.89,1.43,2.85.88,1.93,1.29,2.91.79,2,1.15,3,.69,2,1,3,.59,2,.84,3.07.49,2.07.7,3.11.39,2.09.55,3.14.28,2.1.39,3.16.18,2.11.23,3.17S821.77,232,821.77,233Z"/></g><g class="cls-10"><path class="cls-11" d="M1033.76,233c0,1.06,0,2.12-.08,3.18s-.13,2.12-.23,3.18-.24,2.11-.39,3.16-.34,2.09-.55,3.13-.44,2.08-.7,3.11-.54,2.05-.84,3.07-.65,2-1,3-.74,2-1.15,3-.84,1.95-1.29,2.91-.93,1.91-1.43,2.85-1,1.86-1.57,2.77-1.11,1.81-1.7,2.69-1.21,1.75-1.84,2.6-1.28,1.69-2,2.51-1.36,1.63-2.08,2.41-1.44,1.56-2.19,2.31-1.52,1.48-2.31,2.2-1.59,1.4-2.41,2.08-1.66,1.32-2.51,1.95-1.72,1.25-2.6,1.84-1.78,1.16-2.69,1.7-1.84,1.07-2.77,1.57-1.89,1-2.85,1.43-1.93.89-2.91,1.29-2,.79-3,1.15-2,.69-3,1-2,.59-3.07.85-2.07.49-3.11.7-2.09.38-3.14.54-2.1.29-3.16.39-2.11.18-3.17.23-2.12.08-3.19.08-2.12,0-3.18-.08-2.12-.13-3.18-.23-2.11-.23-3.16-.39-2.09-.34-3.13-.54-2.08-.44-3.11-.7-2-.54-3.07-.85-2-.64-3-1-2-.74-3-1.15-1.95-.83-2.91-1.29-1.91-.93-2.85-1.43-1.86-1-2.77-1.57-1.81-1.11-2.69-1.7-1.75-1.2-2.6-1.84-1.69-1.28-2.51-1.95-1.63-1.37-2.41-2.08-1.56-1.45-2.31-2.2-1.48-1.52-2.2-2.31-1.4-1.59-2.08-2.41-1.32-1.65-2-2.51-1.25-1.72-1.84-2.6-1.16-1.78-1.7-2.69-1.07-1.84-1.57-2.77-1-1.89-1.43-2.85-.89-1.93-1.29-2.91-.79-2-1.15-3-.69-2-1-3-.59-2-.85-3.07-.49-2.07-.69-3.11-.39-2.08-.55-3.13-.28-2.11-.39-3.16-.18-2.12-.23-3.18S904,234.09,904,233s0-2.13.08-3.19.13-2.12.23-3.17.24-2.11.39-3.16.34-2.1.55-3.14.43-2.08.69-3.11.54-2,.85-3.07.64-2,1-3,.74-2,1.15-3,.83-1.95,1.29-2.91.93-1.91,1.43-2.85,1-1.85,1.57-2.77,1.11-1.8,1.7-2.69,1.2-1.75,1.84-2.6,1.28-1.69,2-2.51,1.37-1.62,2.08-2.41,1.45-1.56,2.2-2.31,1.52-1.48,2.31-2.19,1.59-1.41,2.41-2.08,1.65-1.33,2.51-2,1.72-1.24,2.6-1.83,1.78-1.16,2.69-1.71,1.84-1.07,2.77-1.57,1.89-1,2.85-1.43,1.93-.88,2.91-1.29,2-.79,3-1.15,2-.69,3-1,2-.6,3.07-.85,2.07-.49,3.11-.7,2.08-.39,3.13-.55,2.11-.28,3.16-.39,2.12-.18,3.18-.23,2.12-.08,3.18-.08,2.13,0,3.19.08,2.12.13,3.17.23,2.11.24,3.16.39,2.1.34,3.14.55,2.08.44,3.11.7,2.05.54,3.07.85,2,.64,3,1,2,.74,3,1.15,1.95.84,2.91,1.29,1.91.93,2.85,1.43,1.86,1,2.77,1.57,1.8,1.12,2.69,1.71,1.75,1.2,2.6,1.83,1.69,1.28,2.51,2,1.62,1.36,2.41,2.08,1.56,1.44,2.31,2.19,1.48,1.52,2.19,2.31,1.41,1.59,2.08,2.41,1.33,1.66,2,2.51,1.25,1.72,1.84,2.6,1.15,1.78,1.7,2.69,1.07,1.84,1.57,2.77,1,1.89,1.43,2.85.88,1.93,1.29,2.91.79,2,1.15,3,.69,2,1,3,.59,2,.84,3.07.5,2.07.7,3.11.39,2.09.55,3.14.28,2.1.39,3.16.18,2.11.23,3.17S1033.76,232,1033.76,233Z"/></g><g class="cls-12"><path class="cls-9" d="M1245.46,234.59c0,1.06,0,2.12-.08,3.19s-.13,2.11-.23,3.17-.24,2.11-.39,3.16-.34,2.1-.55,3.14-.44,2.08-.7,3.11-.54,2-.84,3.06-.65,2-1,3-.74,2-1.15,3-.84,1.95-1.29,2.91-.93,1.91-1.43,2.84-1,1.86-1.57,2.77-1.11,1.81-1.7,2.69-1.21,1.76-1.84,2.61-1.28,1.69-2,2.51-1.36,1.62-2.08,2.41-1.44,1.55-2.19,2.31-1.52,1.48-2.31,2.19-1.59,1.41-2.41,2.08-1.66,1.33-2.51,2-1.72,1.24-2.6,1.83-1.78,1.16-2.69,1.71-1.84,1.07-2.77,1.57-1.89,1-2.85,1.43-1.93.88-2.91,1.29-2,.79-3,1.14-2,.7-3,1-2,.59-3.07.85-2.07.49-3.11.7-2.09.39-3.14.54-2.1.29-3.16.39-2.11.19-3.17.24-2.12.08-3.19.08-2.12,0-3.18-.08-2.12-.13-3.17-.24-2.11-.23-3.17-.39-2.09-.33-3.13-.54-2.08-.44-3.11-.7-2-.54-3.07-.85-2-.64-3-1-2-.73-3-1.14-2-.84-2.91-1.29-1.91-.93-2.85-1.43-1.86-1-2.77-1.57-1.81-1.12-2.69-1.71-1.75-1.2-2.6-1.83-1.69-1.29-2.51-2-1.63-1.37-2.41-2.08-1.56-1.44-2.31-2.19-1.48-1.52-2.2-2.31-1.4-1.59-2.07-2.41-1.33-1.66-2-2.51-1.25-1.72-1.84-2.61-1.16-1.77-1.7-2.69-1.07-1.83-1.57-2.77-1-1.88-1.43-2.84-.89-1.93-1.29-2.91-.79-2-1.15-3-.69-2-1-3-.59-2-.85-3.06-.49-2.07-.69-3.11-.39-2.09-.55-3.14-.28-2.1-.39-3.16-.18-2.11-.23-3.17-.08-2.13-.08-3.19,0-2.12.08-3.18.13-2.12.23-3.18.24-2.11.39-3.16.34-2.09.55-3.13.44-2.08.69-3.11.54-2.05.85-3.07.64-2,1-3,.74-2,1.15-3,.83-2,1.29-2.92.93-1.9,1.43-2.84,1-1.86,1.57-2.77,1.11-1.81,1.7-2.69,1.2-1.75,1.84-2.6,1.28-1.69,2-2.51,1.36-1.63,2.07-2.42,1.45-1.55,2.2-2.3,1.52-1.48,2.31-2.2,1.59-1.4,2.41-2.08,1.66-1.32,2.51-2,1.72-1.24,2.6-1.83,1.78-1.16,2.69-1.7,1.84-1.07,2.77-1.57,1.89-1,2.85-1.43,1.93-.89,2.91-1.29,2-.79,3-1.15,2-.69,3-1,2-.59,3.07-.85,2.07-.49,3.11-.7,2.08-.38,3.13-.54,2.11-.29,3.17-.39,2.11-.18,3.17-.23,2.12-.08,3.18-.08,2.13,0,3.19.08,2.12.13,3.17.23,2.11.23,3.16.39,2.1.34,3.14.54,2.08.44,3.11.7,2.05.54,3.07.85,2,.64,3,1,2,.74,3,1.15,1.95.83,2.91,1.29,1.91.93,2.85,1.43,1.86,1,2.77,1.57,1.8,1.11,2.69,1.7,1.75,1.2,2.6,1.83,1.69,1.29,2.51,2,1.62,1.37,2.41,2.08,1.56,1.45,2.31,2.2,1.48,1.52,2.19,2.3,1.41,1.6,2.08,2.42,1.33,1.65,2,2.51,1.25,1.72,1.84,2.6,1.15,1.78,1.7,2.69,1.07,1.83,1.57,2.77,1,1.88,1.43,2.84.88,1.93,1.29,2.92.79,2,1.15,3,.69,2,1,3,.59,2,.84,3.07.5,2.06.7,3.11.39,2.08.55,3.13.28,2.11.39,3.16.18,2.12.23,3.18S1245.46,233.53,1245.46,234.59Z"/></g><g class="cls-13"><path class="cls-14" d="M112.23,262.23h12.3V246.86a3.18,3.18,0,0,1,.23-1.18,3.08,3.08,0,0,1,.67-1,2.91,2.91,0,0,1,1-.66,3,3,0,0,1,1.17-.24H143v-12.3H127.6a3.13,3.13,0,0,1-1.17-.23,3.1,3.1,0,0,1-1.67-1.67,3.13,3.13,0,0,1-.23-1.17V213h-12.3v15.38a3.13,3.13,0,0,1-.23,1.17,3.1,3.1,0,0,1-1.67,1.67,3.18,3.18,0,0,1-1.18.23H93.78v12.3h15.37a3,3,0,0,1,1.18.24,2.91,2.91,0,0,1,1,.66,3.08,3.08,0,0,1,.67,1,3.18,3.18,0,0,1,.23,1.18Zm15.37,6.15H109.15a3.13,3.13,0,0,1-1.17-.23,3.1,3.1,0,0,1-1.67-1.67,3.13,3.13,0,0,1-.23-1.17V249.93H90.7a3.13,3.13,0,0,1-1.17-.23A3.1,3.1,0,0,1,87.86,248a3.13,3.13,0,0,1-.23-1.17V228.41a3.18,3.18,0,0,1,.23-1.18,3.08,3.08,0,0,1,.67-1,2.91,2.91,0,0,1,1-.66,3,3,0,0,1,1.17-.24h15.38V210a3.18,3.18,0,0,1,.23-1.18,3.08,3.08,0,0,1,.67-1,2.91,2.91,0,0,1,1-.66,3,3,0,0,1,1.17-.24H127.6a3,3,0,0,1,1.18.24,2.91,2.91,0,0,1,1,.66,3.08,3.08,0,0,1,.67,1,3.18,3.18,0,0,1,.23,1.18v15.37h15.37a3,3,0,0,1,1.18.24,2.91,2.91,0,0,1,1,.66,3.08,3.08,0,0,1,.67,1,3.18,3.18,0,0,1,.23,1.18v18.45a3.13,3.13,0,0,1-.23,1.17,3.1,3.1,0,0,1-1.67,1.67,3.18,3.18,0,0,1-1.18.23H130.68v15.38a3.13,3.13,0,0,1-.23,1.17,3.1,3.1,0,0,1-1.67,1.67A3.18,3.18,0,0,1,127.6,268.38Z"/></g><g class="cls-15"><path class="cls-14" d="M755.66,236.51a26.45,26.45,0,0,1-6.87,3.09v-4.22a26.51,26.51,0,0,0,4.8-2.36c2.19-1.3,4.26-2.52,7.39-2.52s5.16,1.22,7.31,2.52a26.42,26.42,0,0,0,4.88,2.4v4.22a26.39,26.39,0,0,1-6.95-3.17c-1.87-1.09-3.25-1.91-5.24-1.91S757.57,235.38,755.66,236.51Zm39.85-6c0,14.83-6,21.41-12.23,24.3a26.32,26.32,0,0,0,4.11-14.14V228.47a4.06,4.06,0,1,1,8.12,0Zm-54.84,10.16V234a37.24,37.24,0,0,0,10.81-4.39c3.33-1.79,5.72-3.13,9.5-3.13s6.18,1.34,9.51,3.17a38.19,38.19,0,0,0,10.8,4.39v6.7a20.31,20.31,0,1,1-40.62,0ZM726.45,230.5v-2a4.07,4.07,0,0,1,8.13,0v12.19a26.67,26.67,0,0,0,4.1,14.14C732.5,251.91,726.45,245.33,726.45,230.5Zm65-12.19a10.13,10.13,0,0,0-10.07,9.35c-7.64-2-11.54-7.31-20.4-7.31s-12.75,5.28-20.39,7.31a10.13,10.13,0,0,0-20.23.81v2c0,24.38,14.62,31.73,26.48,32.42a26.22,26.22,0,0,0,28.28,0c11.86-.69,26.49-8,26.49-32.42v-2A10.16,10.16,0,0,0,791.45,218.31Z"/></g><g class="cls-16"><rect class="cls-14" x="1155.48" y="209.32" width="34.13" height="5.69"/><path class="cls-14" d="M1161.17,234.91h7.11V227.8h8.53v7.11h7.11v8.53h-7.11v7.11h-8.53v-7.11h-7.11Zm-8.53,25.6h39.81V217.85h-39.81Z"/><path class="cls-14" d="M1203.82,217.85c-4.77,0-8.53,5-8.53,11.37,0,5,2.36,9.16,5.69,10.7v20.59h5.69V239.92c3.32-1.54,5.69-5.66,5.69-10.7C1212.36,222.85,1208.6,217.85,1203.82,217.85Z"/></g><g class="cls-17"><path class="cls-14" d="M969.84,222.06a3.31,3.31,0,0,1,6.52,0l.7,4.2h-7.91Zm-2.74,11.13h12a5.2,5.2,0,0,0,5.14-6.07l-1-6.2A10.23,10.23,0,0,0,963,221l-1,6.21A5.19,5.19,0,0,0,967.1,233.19Z"/><path class="cls-14" d="M937.24,230.11a4.35,4.35,0,0,0-.35,3c.55,2.39,2.64,3.57,5.31,3.47H949c2.88,0,5.24-2,5.24-4.48a4.93,4.93,0,0,0-.24-1.38.26.26,0,0,1,0-.28,3.78,3.78,0,0,0,.49-1.84,4.07,4.07,0,0,0-1.25-2.84.31.31,0,0,1-.07-.35,3.64,3.64,0,0,0-3.4-4.82.29.29,0,0,1-.24-.11,3.75,3.75,0,0,0-2.88-1.21,4,4,0,0,0-2.61.9.25.25,0,0,1-.31.07,4,4,0,0,0-1.59-.31,4.29,4.29,0,0,0-4.3,3.88.31.31,0,0,1-.11.21,4.26,4.26,0,0,0-1.42,3.64,4.43,4.43,0,0,0,.87,2.09C937.27,229.86,937.27,230,937.24,230.11Z"/><path class="cls-14" d="M959.47,247.07a3.3,3.3,0,0,1,1.7-1.8,29.14,29.14,0,0,1,11.9-2.54,29.53,29.53,0,0,1,11.9,2.54,3.23,3.23,0,0,1,1.7,1.8Zm28.34-8.15a36.12,36.12,0,0,0-14.71-3.12,36.74,36.74,0,0,0-14.7,3.12,10.36,10.36,0,0,0-6.11,9.5V254h41.63v-5.59A10.36,10.36,0,0,0,987.81,238.92Z"/><path class="cls-14" d="M935.71,242.14a7,7,0,0,0-4.23,6.42V254h15.61v-5.59a15.66,15.66,0,0,1,2.18-7.94,23.91,23.91,0,0,0-3.92-.35A24.17,24.17,0,0,0,935.71,242.14Z"/><path class="cls-14" d="M1010.5,242.14a23.56,23.56,0,0,0-13.57-1.66,15.57,15.57,0,0,1,2.19,7.94V254h15.61v-5.45A7,7,0,0,0,1010.5,242.14Z"/><path class="cls-14" d="M1007.79,229.73V228a7,7,0,0,0-6.94-6.94h-6.93a1.73,1.73,0,0,0-1.36,2.81l2.43,2.19a6.93,6.93,0,1,0,12.8,3.68Z"/></g><g class="cls-18"><path class="cls-14" d="M350.93,257.74H316.05v-46.5H336.4v14.53h14.53ZM339.3,205.43H316.05a5.83,5.83,0,0,0-5.81,5.81v46.5a5.8,5.8,0,0,0,5.78,5.81h34.91a5.83,5.83,0,0,0,5.81-5.81V222.87Zm-17.44,29.06h23.25v5.81H321.86Zm0,11.63h23.25v5.81H321.86Z"/></g><g class="cls-19"><path class="cls-14" d="M552,245.12a9.74,9.74,0,0,1-6.92,2.89,9.6,9.6,0,0,1-6.92-2.89,9.75,9.75,0,0,1-2.89-6.92A9.79,9.79,0,0,1,552,231.27a9.76,9.76,0,0,1,2.89,6.93A9.63,9.63,0,0,1,552,245.12ZM525.39,208.7h23l16.41,16.4v28.16l-6-6a16.54,16.54,0,1,0-4.63,4.59l9.35,9.39H525.39Zm26.25-6.57H525.39a6.56,6.56,0,0,0-6.53,6.57l0,52.5a6.55,6.55,0,0,0,6.53,6.56h39.41a6.58,6.58,0,0,0,6.56-6.56V221.82Z"/></g></g><g id="Capa_2-2" data-name="Capa 2"><path class="cls-9" d="M1319.48,232.88l-31.67-31.67L1273,216l-16.84,16.84h18.3V233a94,94,0,0,1-187.94-.15h-23.8A118.64,118.64,0,0,0,1300,233v-.15Z"/><path class="cls-11" d="M1107.75,232l-31.67,31.67-14.83-14.83L1044.41,232h18.3v-.15a94,94,0,0,0-187.94.15H851a118.64,118.64,0,0,1,237.28-.15V232Z"/><path class="cls-9" d="M894.82,232.65,863.15,201l-14.83,14.83-16.84,16.84h18.3v.15a94,94,0,0,1-187.94-.15H638a118.64,118.64,0,0,0,237.28.15v-.15Z"/><path class="cls-5" d="M683.09,231.78l-31.67,31.67-14.83-14.83-16.84-16.84h18.3v-.15a94,94,0,0,0-187.94.15h-23.8a118.64,118.64,0,0,1,237.28-.15v.15Z"/><path class="cls-7" d="M468.51,232.36l-31.67-31.67L422,215.52l-16.84,16.84h18.3v.15a94,94,0,0,1-187.94-.15h-23.8a118.64,118.64,0,0,0,237.28.15v-.15Z"/><path class="cls-3" d="M256.78,231.49l-31.67,31.67-14.83-14.83-16.84-16.84h18.3v-.15a94,94,0,0,0-187.94.15H0a118.64,118.64,0,0,1,237.28-.15v.15Z"/><text class="cls-20" transform="translate(71.73 359.93)">Paso 1</text><text class="cls-21" transform="translate(51.33 401.24)">Confirmación <tspan x="-39.15" y="21.6">diagnóstico de Cáncer</tspan></text><text class="cls-20" transform="translate(296.15 20.38)">Paso 2</text><text class="cls-21" transform="translate(263.78 61.7)">Ingreso a comité<tspan x="25.38" y="21.6">oncológico</tspan></text><text class="cls-20" transform="translate(501.09 360.14)">Paso 3</text><text class="cls-21" transform="translate(448.84 401.46)">Visita a Oncólogo de <tspan x="53.22" y="21.6">Biocenter</tspan></text><text class="cls-20" transform="translate(717.86 21.22)">Paso 4</text><text class="cls-21" transform="translate(668.42 62.54)">Decisión terapéutica<tspan x="-8.26" y="21.6">(exámenes, imágenes,</tspan><tspan x="39.62" y="43.2">cirugía, etc)</tspan></text><text class="cls-20" transform="translate(928.22 360.36)">Paso 5</text><text class="cls-21" transform="translate(891.74 401.68)">Ingreso a estudio <tspan x="50.84" y="21.6">clínico</tspan></text><text class="cls-20" transform="translate(1267.01 20.38)">Paso 6</text><text class="cls-21" transform="translate(1216.93 61.7)">Inicio de tratamiento<tspan x="30.2" y="21.6">y seguimiento</tspan></text></g></g></svg>